#!OML:ASF I:\Actors\actors\Patient Classification 2\Patient 1\Session 1\actor1.ASF
:FULLY-SPECIFIED
:DEGREES
270
root -0.908572 18.6633 6.17779 0.885054 -4.01259 -4.31621
lowerback 4.15246 1.40183 2.03966
upperback -3.31123 2.06184 0.928419
thorax -5.7283 0.957996 -0.364842
lowerneck -10.0042 -1.11575 1.35866
upperneck 24.7966 -2.18241 1.2765
head 9.45529 -0.756195 -0.0312541
rclavicle 1.26228e-014 1.98785e-015
rhumerus -51.7142 -5.4721 -84.905
rradius 41.8519
rwrist 17.6469
rhand -10.0343 -29.7666
rfingers 7.12502
rthumb 15.9506 -59.1299
lclavicle 1.26228e-014 1.98785e-015
lhumerus -45.4389 5.10504 87.5609
lradius 37.2479
lwrist -13.159
lhand -3.75327 -24.2246
lfingers 7.12502
lthumb 21.9909 4.54533
rfemur 0 0 0
rtibia 0
rfoot 0 0
rtoes 0
lfemur -3.49846 -6.49126 -10.9887
ltibia 23.2187
lfoot -25.7383 15.7385
ltoes -53.7476
271
root -0.909034 18.6641 6.17492 0.900894 -3.98764 -4.28373
lowerback 4.18651 1.41185 1.9904
upperback -3.3179 2.07202 0.907909
thorax -5.75548 0.964233 -0.360547
lowerneck -9.99824 -1.12037 1.4278
upperneck 24.7905 -2.19027 1.22835
head 9.45065 -0.75874 -0.0603929
rclavicle 5.00689e-015 2.60408e-014
rhumerus -51.7215 -5.47726 -84.8745
rradius 41.8316
rwrist 17.6859
rhand -8.97893 -29.3923
rfingers 7.12502
rthumb 16.9667 -58.6713
lclavicle 5.00689e-015 2.60408e-014
lhumerus -45.407 5.10733 87.5031
lradius 37.1794
lwrist -13.2308
lhand -3.76329 -24.281
lfingers 7.12502
lthumb 21.9813 4.48998
rfemur 0 0 0
rtibia 0
rfoot 0 0
rtoes 0
lfemur -3.5394 -6.48387 -11.0138
ltibia 23.2224
lfoot -25.7115 15.7052
ltoes -53.7589
272
root -0.910761 18.6644 6.17221 0.934315 -3.9504 -4.28291
lowerback 4.17092 1.41198 1.93608
upperback -3.3176 2.06854 0.91658
thorax -5.74841 0.965017 -0.320446
lowerneck -10.0207 -1.12901 1.53066
upperneck 24.8553 -2.18753 1.07884
head 9.47462 -0.763169 -0.129485
rclavicle 2.11209e-016 -1.59028e-015
rhumerus -51.734 -5.49526 -84.8226
rradius 41.8028
rwrist 17.7626
rhand -8.5889 -29.1856
rfingers 7.12502
rthumb 17.3421 -58.4319
lclavicle 2.11209e-016 -1.59028e-015
lhumerus -45.3791 5.1055 87.4769
lradius 37.1357
lwrist -13.2805
lhand -3.79542 -24.4079
lfingers 7.12502
lthumb 21.9504 4.36674
rfemur 0 0 0
rtibia 0
rfoot 0 0
rtoes 0
lfemur -3.60622 -6.47762 -10.992
ltibia 23.2309
lfoot -25.6884 15.6319
ltoes -53.7383
273
root -0.911831 18.6642 6.17099 0.964485 -3.93183 -4.30985
lowerback 4.13646 1.41297 1.91614
upperback -3.31275 2.06883 0.9429
thorax -5.72523 0.966845 -0.280997
lowerneck -10.0665 -1.15372 1.57453
upperneck 24.9608 -2.19918 0.937888
head 9.51805 -0.778264 -0.187625
rclavicle -3.23025e-016 -1.19271e-015
rhumerus -51.7504 -5.54687 -84.7346
rradius 41.7796
rwrist 17.8393
rhand -8.59971 -29.2635
rfingers 7.12502
rthumb 17.3317 -58.5108
lclavicle -3.23025e-016 -1.19271e-015
lhumerus -45.3459 5.15541 87.4688
lradius 37.0809
lwrist -13.3344
lhand -3.82604 -24.3564
lfingers 7.12502
lthumb 21.921 4.42173
rfemur 0 0 0
rtibia 0
rfoot 0 0
rtoes 0
lfemur -3.65512 -6.4651 -10.9478
ltibia 23.2436
lfoot -25.6773 15.6046
ltoes -53.7134
274
root -0.91228 18.6638 6.17071 0.99737 -3.91589 -4.34839
lowerback 4.08645 1.4243 1.95574
upperback -3.3131 2.08515 0.941954
thorax -5.6953 0.973647 -0.304146
lowerneck -10.0461 -1.18874 1.58657
upperneck 24.9925 -2.23945 0.891672
head 9.52442 -0.800649 -0.210034
rclavicle -2.2239e-014 0
rhumerus -51.7836 -5.62581 -84.6739
rradius 41.7988
rwrist 17.9073
rhand -8.34729 -29.415
rfingers 7.12502
rthumb 17.5747 -58.6406
lclavicle -2.2239e-014 0
lhumerus -45.3238 5.19034 87.4284
lradius 37.0455
lwrist -13.3744
lhand -3.78397 -24.2155
lfingers 7.12502
lthumb 21.9614 4.55785
rfemur 0 0 0
rtibia 0
rfoot 0 0
rtoes 0
lfemur -3.70188 -6.4491 -10.8946
ltibia 23.2643
lfoot -25.6787 15.5913
ltoes -53.708
275
root -0.912163 18.6639 6.1699 1.02437 -3.91021 -4.37906
lowerback 4.06401 1.42643 1.99044
upperback -3.31352 2.08933 0.935733
thorax -5.68141 0.974342 -0.329727
lowerneck -10.0252 -1.19254 1.58563
upperneck 24.9979 -2.25179 0.921521
head 9.52279 -0.803259 -0.200769
rclavicle 3.08116e-014 8.54774e-015
rhumerus -51.8018 -5.62452 -84.6653
rradius 41.8156
rwrist 17.9697
rhand -8.26129 -29.4093
rfingers 7.12502
rthumb 17.6574 -58.6275
lclavicle 3.08116e-014 8.54774e-015
lhumerus -45.3296 5.21997 87.3709
lradius 37.0616
lwrist -13.3953
lhand -3.78688 -24.1807
lfingers 7.12502
lthumb 21.9586 4.59296
rfemur 0 0 0
rtibia 0
rfoot 0 0
rtoes 0
lfemur -3.74263 -6.44895 -10.8571
ltibia 23.2852
lfoot -25.691 15.6173
ltoes -53.7697
276
root -0.912043 18.6643 6.16835 1.04808 -3.91196 -4.38938
lowerback 4.08572 1.41998 1.98284
upperback -3.32702 2.08115 0.935841
thorax -5.70846 0.970238 -0.325458
lowerneck -10.0494 -1.16538 1.57714
upperneck 25.0447 -2.22741 0.976633
head 9.54508 -0.785879 -0.177977
rclavicle -1.24986e-014 -1.31198e-014
rhumerus -51.8389 -5.59605 -84.6661
rradius 41.836
rwrist 17.9964
rhand -8.36188 -29.3639
rfingers 7.12502
rthumb 17.5606 -58.5908
lclavicle -1.24986e-014 -1.31198e-014
lhumerus -45.383 5.22606 87.3266
lradius 37.1117
lwrist -13.3698
lhand -4.10987 -24.1855
lfingers 7.12502
lthumb 21.6485 4.62428
rfemur 0 0 0
rtibia 0
rfoot 0 0
rtoes 0
lfemur -3.78168 -6.47333 -10.8468
ltibia 23.3014
lfoot -25.7121 15.653
ltoes -53.786
277
root -0.912793 18.6647 6.16677 1.07915 -3.90396 -4.40475
lowerback 4.09242 1.42003 1.98267
upperback -3.34647 2.08153 0.929747
thorax -5.73253 0.969948 -0.332182
lowerneck -10.0457 -1.13763 1.6051
upperneck 25.0721 -2.19947 0.996877
head 9.55424 -0.767625 -0.172708
rclavicle -2.6662e-014 -2.78299e-015
rhumerus -51.8967 -5.5952 -84.6781
rradius 41.8839
rwrist 17.9514
rhand -8.34025 -29.4958
rfingers 7.12502
rthumb 17.5814 -58.7208
lclavicle -2.6662e-014 -2.78299e-015
lhumerus -45.445 5.18605 87.2901
lradius 37.1656
lwrist -13.2851
lhand -4.3277 -24.1287
lfingers 7.12502
lthumb 21.4392 4.705
rfemur 0 0 0
rtibia 0
rfoot 0 0
rtoes 0
lfemur -3.83011 -6.48759 -10.8209
ltibia 23.3102
lfoot -25.7228 15.6477
ltoes -53.7195
278
root -0.913555 18.6655 6.16535 1.0893 -3.9004 -4.4212
lowerback 4.10975 1.42672 2.00128
upperback -3.34938 2.09183 0.92078
thorax -5.74439 0.973936 -0.353321
lowerneck -10.0336 -1.11663 1.66063
upperneck 25.0494 -2.17161 0.963788
head 9.54297 -0.753369 -0.190313
rclavicle -2.83268e-015 -1.55052e-014
rhumerus -51.9038 -5.61587 -84.6911
rradius 41.8925
rwrist 17.8622
rhand -8.3909 -29.5873
rfingers 7.12502
rthumb 17.5327 -58.8167
lclavicle -2.83268e-015 -1.55052e-014
lhumerus -45.4942 5.12632 87.2757
lradius 37.2309
lwrist -13.2237
lhand -3.98674 -24.0611
lfingers 7.12502
lthumb 21.7667 4.735
rfemur 0 0 0
rtibia 0
rfoot 0 0
rtoes 0
lfemur -3.84803 -6.48202 -10.797
ltibia 23.3075
lfoot -25.7051 15.6437
ltoes -53.7276
279
root -0.914123 18.6659 6.16354 1.07925 -3.89051 -4.40449
lowerback 4.15532 1.42887 1.98029
upperback -3.33806 2.09444 0.921608
thorax -5.75928 0.975961 -0.342097
lowerneck -10.0444 -1.11419 1.65615
upperneck 25.0055 -2.15797 0.931088
head 9.52902 -0.751493 -0.199257
rclavicle -2.04997e-014 9.74045e-015
rhumerus -51.8583 -5.64244 -84.6734
rradius 41.8513
rwrist 17.8336
rhand -7.66 -29.92
rfingers 7.12502
rthumb 18.236 -59.0852
lclavicle -2.04997e-014 9.74045e-015
lhumerus -45.5306 5.05753 87.3087
lradius 37.3039
lwrist -13.1869
lhand -3.67589 -23.9737
lfingers 7.12502
lthumb 22.0652 4.78745
rfemur 0 0 0
rtibia 0
rfoot 0 0
rtoes 0
lfemur -3.84678 -6.48599 -10.8146
ltibia 23.3011
lfoot -25.677 15.6279
ltoes -53.7428
280
root -0.914816 18.6658 6.1619 1.0723 -3.87012 -4.35242
lowerback 4.19848 1.42638 1.91265
upperback -3.33127 2.08726 0.914406
thorax -5.77899 0.974807 -0.312257
lowerneck -10.095 -1.12441 1.63982
upperneck 25.0184 -2.16276 0.900339
head 9.54289 -0.758149 -0.208088
rclavicle 4.37326e-015 -7.15625e-015
rhumerus -51.8594 -5.64481 -84.6661
rradius 41.8651
rwrist 17.8385
rhand -5.83752 -30.7122
rfingers 7.12502
rthumb 19.9885 -59.7041
lclavicle 4.37326e-015 -7.15625e-015
lhumerus -45.533 5.04986 87.3084
lradius 37.3026
lwrist -13.1786
lhand -3.62636 -23.9458
lfingers 7.12502
lthumb 22.1127 4.80968
rfemur 0 0 0
rtibia 0
rfoot 0 0
rtoes 0
lfemur -3.85474 -6.51473 -10.8691
ltibia 23.2973
lfoot -25.6664 15.6056
ltoes -53.6719
281
root -0.915122 18.6658 6.16106 1.06688 -3.85977 -4.33241
lowerback 4.23818 1.42895 1.89843
upperback -3.33721 2.08954 0.887283
thorax -5.80739 0.975558 -0.333866
lowerneck -10.1402 -1.11678 1.69125
upperneck 25.0573 -2.15603 0.867371
head 9.56439 -0.753027 -0.228
rclavicle 3.35449e-015 5.56597e-015
rhumerus -51.9451 -5.64264 -84.7084
rradius 41.9539
rwrist 17.7784
rhand -5.77558 -30.7182
rfingers 7.12502
rthumb 20.0481 -59.7039
lclavicle 3.35449e-015 5.56597e-015
lhumerus -45.5442 5.04975 87.2473
lradius 37.254
lwrist -13.1676
lhand -3.58948 -24.0263
lfingers 7.12502
lthumb 22.1481 4.72507
rfemur 0 0 0
rtibia 0
rfoot 0 0
rtoes 0
lfemur -3.85406 -6.54849 -10.893
ltibia 23.2947
lfoot -25.6691 15.6213
ltoes -53.6663
